<svg xmlns="http://www.w3.org/2000/svg" width="1024" height="1024" viewBox="0 0 512 512">
  <defs>
    <linearGradient id="bgGreen" x1="0" y1="0" x2="0.9" y2="1">
      <stop offset="0" stop-color="#337a51"/>
      <stop offset="1" stop-color="#1a4a2f"/>
    </linearGradient>
  </defs>
  <rect width="512" height="512" rx="116" fill="url(#bgGreen)"/>
  <g transform="translate(0 37)">
    <path d="M256 270 C 254 230 252 184 250 128" fill="none"
          stroke="#f2c94c" stroke-width="16" stroke-linecap="round"/>
    <path d="M250 130 C 260 90 292 64 336 58 C 324 98 294 124 250 130 Z" fill="#f2c94c"/>
    <path d="M253 172 C 249 136 222 112 166 106 C 172 144 204 168 253 172 Z" fill="#f2c94c"/>
    <path d="M256 380 C 210 363 162 357 126 363 L126 247 C 162 241 210 247 256 264 Z" fill="#f3efe2"/>
    <path d="M256 380 C 302 363 350 357 386 363 L386 247 C 350 241 302 247 256 264 Z" fill="#dde5d8"/>
    <path d="M256 264 L256 380" stroke="#b7c3b2" stroke-width="7"/>
  </g>
</svg>
